<?xml version="1.0" standalone="no"?>
<!DOCTYPE svg PUBLIC "-//W3C//DTD SVG 20010904//EN"
 "http://www.w3.org/TR/2001/REC-SVG-20010904/DTD/svg10.dtd">
<svg version="1.0" xmlns="http://www.w3.org/2000/svg"
 width="100.000000pt" height="100.000000pt" viewBox="0 0 100.000000 100.000000"
 preserveAspectRatio="xMidYMid meet">

<g transform="translate(0.000000,100.000000) scale(0.100000,-0.100000)"
fill="#000000" stroke="none">
<path d="M373 850 c-66 -33 -140 -105 -171 -166 -89 -176 -19 -388 160 -485
60 -32 68 -34 163 -34 93 0 105 2 167 33 70 34 124 87 159 154 34 67 20 98
-33 72 -130 -66 -293 -18 -362 106 -27 48 -31 65 -31 131 0 66 4 84 32 136 23
45 29 63 20 72 -17 17 -39 13 -104 -19z"/>
</g>
</svg>
