<?xml version="1.0" standalone="no"?>
<!DOCTYPE svg PUBLIC "-//W3C//DTD SVG 20010904//EN"
 "http://www.w3.org/TR/2001/REC-SVG-20010904/DTD/svg10.dtd">
<svg version="1.0" xmlns="http://www.w3.org/2000/svg"
 width="100.000000pt" height="100.000000pt" viewBox="0 0 100.000000 100.000000"
 preserveAspectRatio="xMidYMid meet">

<g transform="translate(0.000000,100.000000) scale(0.100000,-0.100000)"
fill="#000000" stroke="none">
<path d="M430 913 c-8 -3 -27 -14 -42 -24 -22 -16 -45 -19 -137 -19 -97 0
-111 -2 -120 -18 -7 -14 -6 -25 5 -40 15 -22 18 -22 364 -22 346 0 349 0 364
22 11 15 12 26 5 40 -9 16 -23 18 -120 18 -99 0 -114 2 -142 22 -24 17 -48 23
-97 25 -36 1 -72 0 -80 -4z"/>
<path d="M185 678 c2 -18 16 -136 30 -263 31 -276 36 -300 75 -320 42 -22 378
-22 420 0 39 20 44 44 75 320 14 127 28 245 30 263 l6 32 -321 0 -321 0 6 -32z"/>
</g>
</svg>
