<?xml version="1.0" standalone="no"?>
<!DOCTYPE svg PUBLIC "-//W3C//DTD SVG 20010904//EN"
 "http://www.w3.org/TR/2001/REC-SVG-20010904/DTD/svg10.dtd">
<svg version="1.0" xmlns="http://www.w3.org/2000/svg"
 width="100.000000pt" height="100.000000pt" viewBox="0 0 100.000000 100.000000"
 preserveAspectRatio="xMidYMid meet">

<g transform="translate(0.000000,100.000000) scale(0.100000,-0.100000)"
fill="#000000" stroke="none">
<path d="M380 980 c-11 -11 -20 -33 -20 -50 l0 -29 -107 -3 c-77 -2 -108 -7
-111 -16 -2 -7 5 -16 16 -19 26 -6 25 3 64 -448 28 -321 35 -382 50 -397 16
-16 40 -18 228 -18 188 0 212 2 228 18 15 15 22 75 50 402 18 212 36 397 38
411 3 16 13 29 26 32 11 3 18 12 16 19 -3 9 -34 14 -111 16 l-107 3 0 29 c0
56 -27 70 -140 70 -87 0 -103 -3 -120 -20z m218 -52 l3 -28 -100 0 c-99 0
-101 0 -101 23 0 13 3 27 7 31 4 4 48 5 98 4 90 -3 90 -3 93 -30z m175 -125
c-3 -32 -19 -215 -37 -408 l-31 -350 -205 0 -205 0 -31 350 c-18 193 -35 376
-38 408 l-6 57 279 0 279 0 -5 -57z"/>
<path d="M365 788 c-3 -7 -4 -164 -3 -348 3 -290 5 -335 18 -335 13 0 15 45
15 344 0 267 -3 345 -12 348 -7 3 -15 -1 -18 -9z"/>
<path d="M485 788 c-3 -7 -4 -164 -3 -348 3 -290 5 -335 18 -335 13 0 15 45
15 344 0 267 -3 345 -12 348 -7 3 -15 -1 -18 -9z"/>
<path d="M605 788 c-3 -7 -4 -164 -3 -348 3 -290 5 -335 18 -335 13 0 15 45
15 344 0 267 -3 345 -12 348 -7 3 -15 -1 -18 -9z"/>
</g>
</svg>
