<?xml version="1.0" standalone="no"?>
<!DOCTYPE svg PUBLIC "-//W3C//DTD SVG 20010904//EN"
 "http://www.w3.org/TR/2001/REC-SVG-20010904/DTD/svg10.dtd">
<svg version="1.0" xmlns="http://www.w3.org/2000/svg"
 width="100.000000pt" height="100.000000pt" viewBox="0 0 100.000000 100.000000"
 preserveAspectRatio="xMidYMid meet">

<g transform="translate(0.000000,100.000000) scale(0.100000,-0.100000)"
fill="#000000" stroke="none">
<path d="M467 864 c-4 -4 -7 -78 -7 -165 l0 -159 -162 -2 -163 -3 0 -35 0 -35
162 -3 163 -2 2 -163 3 -162 35 0 35 0 3 162 2 163 163 2 162 3 0 35 0 35
-162 3 -163 2 -2 163 -3 162 -30 3 c-17 2 -34 0 -38 -4z"/>
</g>
</svg>
